<svg width="800" height="800" viewBox="0 0 20 20"><path fill="currentColor" fill-rule="evenodd" d="M3.07 6a8.03 8.03 0 0 1 4.26-3.54A12.8 12.8 0 0 0 5.6 6H3.07zm-.82 2A8.02 8.02 0 0 0 2 10c0 .69.09 1.36.25 2h2.9A13.89 13.89 0 0 1 5 10c0-.7.05-1.37.14-2H2.25zm4.92 0a11.64 11.64 0 0 0 0 4h5.66a11.75 11.75 0 0 0 0-4H7.17zm7.69 0a14.1 14.1 0 0 1 0 4h2.89a8 8 0 0 0 0-4h-2.9zm2.07-2h-2.52a12.8 12.8 0 0 0-1.74-3.54A8.03 8.03 0 0 1 16.93 6zm-4.64 0H7.71A10.78 10.78 0 0 1 10 2.35 10.27 10.27 0 0 1 12.3 6zm-1.12 10.2c.4-.6.8-1.33 1.12-2.2H7.71A10.78 10.78 0 0 0 10 17.65c.33-.34.75-.82 1.17-1.46zM3.07 14H5.6a12.8 12.8 0 0 0 1.73 3.54A8.03 8.03 0 0 1 3.07 14zm9.76 3.3a12.9 12.9 0 0 1-.16.24A8.03 8.03 0 0 0 16.93 14h-2.52a12.8 12.8 0 0 1-1.58 3.3zM20 10a10 10 0 0 1-9.99 10h-.02A10 10 0 1 1 20 10z"/></svg>